<?xml version="1.0" encoding="utf-8"?>
<!-- Generator: Adobe Illustrator 23.0.2, SVG Export Plug-In . SVG Version: 6.00 Build 0)  -->
<svg version="1.1" id="Layer_1" xmlns="http://www.w3.org/2000/svg" xmlns:xlink="http://www.w3.org/1999/xlink" x="0px" y="0px"
	 viewBox="0 0 494 492" style="enable-background:new 0 0 494 492;" xml:space="preserve">
<style type="text/css">
	.st0{fill:#001E50;}
</style>
<path class="st0" d="M491.8,222c-1.5-17-4.9-33.7-10-50c-19-60.8-62.6-113.5-118.9-143.2C330.5,11.4,294,1.8,257.2,0h-17.9
	c-48.6,1.5-96.7,17.6-136.2,46.1C49,85,11.1,146.8,3.2,213.3l-0.5,0.6c-0.2,6.7-1.5,13.4-1.4,20.1c-0.6,7.3-1.1,14.7-0.1,22
	c1.7,60,27.3,118.7,69.2,161.5c35.9,37.4,84.2,62.5,135.4,71.1c10.2,1.8,20.6,2.6,30.9,3.4h20.3c45.9-2.1,91.2-16.8,129.1-42.9
	c30.2-20.7,55.7-48.3,74-80c19-32.5,30.1-69.5,32.3-107.1C492.4,248.7,493.3,235.3,491.8,222z M175.9,34.8c1-0.3,2-0.6,3-0.9
	c1-0.4,2-0.7,3-1.1c0.6-0.1,1.7-0.4,2.2-0.5c3.9-1.4,7.8-2.3,11.8-3.4c1.4-0.3,2.7-0.6,4.1-1c1.6-0.3,3.3-0.6,4.9-1
	c3.9-0.8,8-1.3,11.9-2.1c2.7-0.2,5.3-0.4,7.9-1h0c9.8-0.4,19.6-1.6,29.4-1c5,0.8,10,0.6,15,1c2.6,0.6,5.3,0.8,8,1c4,0.8,8,1.4,12,2
	c3,0.8,6,1.5,9,2c3.9,1.1,7.9,2,11.8,3.4c0.6,0.1,1.7,0.4,2.2,0.6c1,0.4,2,0.7,3,1c1.5,0.6,3,1.3,4.6,1.8c-0.9,1.8-1.8,3.6-2.6,5.5
	c-1.3,3-2.6,6-4,9c-1.4,3.3-2.9,6.5-4.3,9.8c-1.3,3-2.7,6-4,9c-1.3,3-2.7,6-4,9c-1.3,3-2.7,6-4,9c-13.5,30.4-27.2,60.8-40.7,91.2
	c-1.4,3.3-2.9,6.6-4.4,9.8c-1.2,2.9-2.2,6-4.7,8.1c-2.8-2.2-3.7-5.8-5.2-8.9c-1.3-3-2.7-6-4-9c-1.3-3-2.7-6-4-9
	c-12.5-28.1-25.1-56.1-37.6-84.2c-2.6-5.6-4.9-11.2-7.5-16.8c-1.2-3-2.6-6-4-9c-1.4-3.4-3-6.8-4.4-10.2c-1.2-2.6-2.4-5.2-3.5-7.8
	c-0.8-1.8-1.6-3.5-2.5-5.3C174.8,35.5,175.4,35.1,175.9,34.8z M136.5,52.4L136.5,52.4c1.1-0.6,2.2-1.1,3.4-1.6
	c13.4,30.5,27.4,60.8,40.9,91.3c1.5,3.3,2.9,6.6,4.4,9.8c1.5,3.4,3.1,6.8,4.5,10.2c1.5,3.3,3,6.5,4.4,9.8
	c9.1,20.2,18.2,40.5,27.3,60.7c0.9,2.7,3.8,3.6,6.4,3.5c12.4,0.1,24.7,0,37.1,0c2.1-0.1,4.8,0,6.3-1.7c1.3-1.8,2.1-3.9,3-5.9
	c8.5-18.8,17-37.7,25.5-56.6c1.4-3.3,2.9-6.5,4.4-9.8c1.4-3.4,3-6.8,4.5-10.2c1.2-2.6,2.4-5.2,3.6-7.8c1.5-3.7,3.3-7.3,4.9-10.9
	c12.3-27.4,24.6-54.8,37-82.1c1.2,0.2,2.3,0.7,3.4,1.4c28.1,16.6,52.6,39.1,71.4,65.7c1.8,2.6,3.5,5.3,5.5,7.8
	c-2.3,3.1-3.7,6.7-5.4,10.2c-1.9,3.5-3.5,7.2-5.3,10.7c-24.1,48.5-48.3,97-72.2,145.6c-10.8,21.4-21.2,43.1-32.3,64.3l-2.4-0.1
	c-3-5.3-5.1-11.1-7.6-16.7c-1.1-2.6-2.2-5.2-3.4-7.8c-1.2-2.7-2.4-5.4-3.5-8.2c-1.2-2.6-2.3-5.2-3.5-7.8
	c-8.6-19.9-17.4-39.8-26.1-59.6c-0.9-2.3-3.1-4.2-5.7-3.9c-13.3,0-26.7,0-40,0c-2.5-0.3-4.6,1.3-5.6,3.5c-8.8,20-17.6,40-26.3,60
	c-1.1,2.6-2.2,5.2-3.4,7.8c-1.1,2.8-2.4,5.5-3.5,8.2c-1.2,2.6-2.2,5.2-3.4,7.8c-1.2,2.7-2.4,5.4-3.5,8.2c-1.3,3-2.6,5.9-4.2,8.8
	c-1.7,0-3.2-0.7-3.8-2.4c-13.7-27.6-27.4-55.1-41.1-82.6c-2-4-3.9-8.1-5.9-12.1c-0.5-0.9-1-1.9-1.5-2.8
	c-17.4-35.5-35.2-70.7-52.6-106.1c-1.7-3.3-3.3-6.6-5-10c-1.4-3-2.8-6-4.3-8.9c-1.1-2.2-2.3-4.4-2.8-6.8
	C79.8,95.6,105.9,70.3,136.5,52.4z M458.5,314.9c-11.7,35.3-32.1,67.8-59.3,93.2c-19.3,18.3-41.8,33.3-66.4,43.7
	c-1.7,0.7-3.3,1.4-5,2c-2.9,1.2-5.9,2.2-8.9,3.4c-0.5,0.1-1.6,0.4-2.1,0.6c-1,0.3-2,0.7-3.1,1.1c-2.6,0.8-5.1,1.5-7.7,2.3
	c-4,1.1-8,2-12,3c-1.7,0.3-3.4,0.6-5,1c-1.7,0.3-3.4,0.6-5,1c-8.3,1.3-16.7,2.5-25.1,2.6c-8.3,0.9-16.7,0.8-24.9-0.1
	c-8.1,0-16.1-1.5-24.2-2.5c-1.7-0.4-3.4-0.7-5-1c-1.6-0.4-3.3-0.7-5-1c-4-1-8-1.9-12-3c-2.6-0.8-5.2-1.5-7.7-2.3c-1-0.3-2-0.6-3-1
	c-1-0.4-2-0.7-3-1.1c-1.4-0.5-2.9-1-4.3-1.5c-1.2-0.5-2.5-1-3.7-1.5c-1.7-0.7-3.3-1.3-5-2c-42.6-18.2-79.4-49.9-103.6-89.4
	c-2.7-4.4-5.1-8.9-7.7-13.4c-0.1-0.3-0.3-0.8-0.4-1.1c-27.1-51.5-32.6-113.9-14.6-169.3c1.2-3.4,2-7,3.9-10.1
	c5.1,10.1,10.1,20.3,15.1,30.5c0.5,0.9,1,1.9,1.5,2.8c0.5,1,1,2.1,1.4,3.2c1.2,2.3,2.3,4.6,3.5,6.9c1.2,2.4,2.4,4.7,3.5,7.1
	c0.2,0.5,0.8,1.5,1,2c16.2,33.1,33,65.9,49.2,99c1,2,2,4,3,6c0.8,1.6,1.6,3.2,2.4,4.8c0.5,1.1,1,2.1,1.5,3.2c0.7,1.3,1.3,2.7,2,4
	c0.7,1.3,1.4,2.6,2,4c0.2,0.5,0.7,1.5,1,2c1.3,2.7,2.7,5.3,4,8c0.6,1.3,1.3,2.7,1.9,4c12.3,25,24.9,49.8,37.2,74.8
	c1.1,2.1,2.6,4.4,5,5.2c3.3,1.3,7.1-0.2,9-3c1.8-2.8,2.9-6,4.3-8.9c1.5-3.4,3-6.8,4.5-10.2c1.2-2.6,2.3-5.2,3.5-7.8
	c14.9-33.7,30.1-67.4,45.1-101.1c1.7-3.8,3.1-7.8,5.2-11.4c1.4-1,3-0.1,3.8,1.1c1.1,3.1,2.5,6.1,3.9,9.1c1.3,3,2.7,6,4,9
	c14.9,33.4,29.9,66.8,44.7,100.2c1.4,3.3,2.9,6.6,4.4,9.8c2.1,4.3,3.1,9.6,7.2,12.5c4,2.6,9.5,0.4,11.2-3.9
	c12.5-24.8,25-49.7,37.2-74.6c1.6-3.3,3.3-6.7,4.9-10c0.5-0.9,1-1.9,1.5-2.8c0.2-0.5,0.7-1.5,1-2c0.6-1.3,1.3-2.7,2-4
	c0.6-1.4,1.3-2.7,2-4c0.7-1.3,1.3-2.7,2-4c0.2-0.5,0.7-1.5,1-2c16.3-33,32.9-65.9,49.2-98.9c0.8-1.7,1.7-3.5,2.5-5.2
	c0.5-1,1-1.9,1.5-2.9c0.3-0.5,0.8-1.5,1-2.1c0.5-1,1-2,1.4-3.1c0.5-1,1-1.9,1.5-2.9c1.3-2.7,2.6-5.3,3.9-8c1.3-2.7,2.6-5.4,4-8
	c4.7-9.7,9.7-19.2,14.2-28.9c0,0,0,0,0,0h0c0,0,0,0,0,0C473.5,214.7,474.1,267.6,458.5,314.9z"/>
</svg>
